<?xml version="1.0" encoding="UTF-8"?>
<svg version="1.1" xmlns="http://www.w3.org/2000/svg" width="32" height="32">
<path d="M0 0 C10.56 0 21.12 0 32 0 C32 10.56 32 21.12 32 32 C21.44 32 10.88 32 0 32 C0 21.44 0 10.88 0 0 Z " fill="#28366C" transform="translate(0,0)"/>
<path d="M0 0 C10.56 0 21.12 0 32 0 C32 9 32 9 31 11 C30.278125 10.79375 29.55625 10.5875 28.8125 10.375 C25.53640014 9.93818669 23.97988854 10.71139955 21 12 C20.34 11.67 19.68 11.34 19 11 C13.39296787 10.78622279 13.39296787 10.78622279 8 12 C5.21981212 11.23983391 2.67425894 10.09600776 0 9 C0 6.03 0 3.06 0 0 Z " fill="#27356C" transform="translate(0,0)"/>
<path d="M0 0 C2.76276177 0.52268466 5.3260876 1.10869587 8 2 C8.66 1.67 9.32 1.34 10 1 C17.14697406 0.76945245 17.14697406 0.76945245 20.3125 1.625 C21.1478125 1.810625 21.1478125 1.810625 22 2 C22.99 1.34 23.98 0.68 25 0 C27.1875 0.375 27.1875 0.375 29 1 C28.20335937 1.43699219 28.20335937 1.43699219 27.390625 1.8828125 C23.58389142 4.09182943 21.28700629 5.56539047 18.8125 9.3125 C18.214375 10.199375 17.61625 11.08625 17 12 C14.5703125 12.40625 14.5703125 12.40625 12 12 C10.41015625 10.35546875 10.41015625 10.35546875 9.0625 8.1875 C6.5077765 4.43836032 4.32790855 2.64872707 0 1 C0 0.67 0 0.34 0 0 Z " fill="#CACDDB" transform="translate(1,9)"/>
<path d="M0 0 C3.96 1.98 3.96 1.98 8 4 C8 7 8 7 6.0625 9 C5.381875 9.66 4.70125 10.32 4 11 C3.67 11.99 3.34 12.98 3 14 C2.34 14 1.68 14 1 14 C0.06380187 10.84493858 -0.1057123 8.03413498 -0.0625 4.75 C-0.05347656 3.85796875 -0.04445312 2.9659375 -0.03515625 2.046875 C-0.02355469 1.37140625 -0.01195312 0.6959375 0 0 Z " fill="#5A658F" transform="translate(0,9)"/>
<path d="M0 0 C1.23556641 0.01740234 1.23556641 0.01740234 2.49609375 0.03515625 C3.32238281 0.04417969 4.14867187 0.05320312 5 0.0625 C5.63808594 0.07410156 6.27617187 0.08570313 6.93359375 0.09765625 C6.93359375 3.09765625 6.93359375 3.09765625 4.93359375 6.09765625 C2.49609375 6.59765625 2.49609375 6.59765625 -0.06640625 6.09765625 C-1.87890625 3.59765625 -1.87890625 3.59765625 -3.06640625 1.09765625 C-2.06640625 0.09765625 -2.06640625 0.09765625 0 0 Z " fill="#2F3C71" transform="translate(13.06640625,11.90234375)"/>
<path d="M0 0 C-0.79664063 0.43699219 -0.79664063 0.43699219 -1.609375 0.8828125 C-5.41610858 3.09182943 -7.71299371 4.56539047 -10.1875 8.3125 C-10.785625 9.199375 -11.38375 10.08625 -12 11 C-14.75 11.375 -14.75 11.375 -17 11 C-17 10.34 -17 9.68 -17 9 C-16.34 9 -15.68 9 -15 9 C-14.67 8.34 -14.34 7.68 -14 7 C-13.34 7 -12.68 7 -12 7 C-11.566875 6.236875 -11.13375 5.47375 -10.6875 4.6875 C-7.85707752 0.17979013 -5.11521926 -1.58560937 0 0 Z " fill="#D4D7E2" transform="translate(30,10)"/>
<path d="M0 0 C3 1 3 1 4.25 2.8125 C5.11637742 5.33943414 4.88492145 6.52221994 4 9 C0 2.25 0 2.25 0 0 Z " fill="#C6C9D8" transform="translate(24,14)"/>
</svg>
